<?xml version="1.0" encoding="utf-8"?>
<!-- Generator: Adobe Illustrator 24.1.2, SVG Export Plug-In . SVG Version: 6.00 Build 0)  -->
<svg version="1.1" id="Layer_1" xmlns="http://www.w3.org/2000/svg" xmlns:xlink="http://www.w3.org/1999/xlink" x="0px" y="0px"
	 viewBox="0 0 238.9 65.6" style="enable-background:new 0 0 238.9 65.6;" xml:space="preserve">
<style type="text/css">
	.st0{fill:#fff;}
	.st1{fill:#CE0E2D;}
	.st2{fill:#fff;}
</style>
<g>
	<path class="st0" d="M20.2,51H0V12.3h18.9c10,0,14.5,4.2,14.5,10.7c0,4.3-2.8,7.3-6.9,7.9c4.6,0.9,8.1,3.9,8.1,9.5
		C34.5,47.1,29.2,51,20.2,51 M10.1,27.6h7.4c3.6,0,5-1.6,5-3.4c0-2-1.4-3.6-5-3.6h-7.4V27.6z M10.1,35.5v7.2h8.4
		c3.6,0,5.2-1.5,5.2-3.6s-1.6-3.6-5.3-3.6H10.1z"/>
	<path class="st0" d="M62.4,43c0,1.4,0.6,2,1.7,2c0.8,0,1.4-0.1,2.2-0.4v5.3c-1.4,1-3.4,1.8-6.2,1.8c-3.4,0-6-1.7-6.9-4.9
		c-1.6,3.2-4.7,4.9-9.1,4.9c-5.4,0-8.9-2.8-8.9-7.4c0-5.3,3.8-7.6,9.8-8.6l7.7-1.3v-0.4c0-2.3-1-3.6-3.4-3.6c-2.2,0-3.3,1.4-3.8,3.4
		l-9.2-0.6c0.9-6,5.3-10.2,13.6-10.2c7.3,0,12.6,3.1,12.6,10.8V43z M52.6,39.1l-4.1,0.7c-2.4,0.5-3.8,1.2-3.8,3
		c0,1.4,1.1,2.3,2.8,2.3c2.8,0,5.1-2.1,5.1-5.7V39.1z"/>
	<path class="st0" d="M81.1,22.8c8.2,0,12.9,5.4,13.5,11.9l-8.2,0.6c-0.7-3.4-2.3-5-5.2-5c-3,0-5.1,2-5.1,7c0,4.9,2.1,6.9,5.1,6.9
		c2.9,0,4.5-1.7,5.2-5l8.2,0.6c-0.7,6.6-5.3,11.9-13.5,11.9c-8.7,0-15-5.7-15-14.4C66.1,28.6,72.5,22.8,81.1,22.8"/>
	<polygon class="st0" points="106.5,51 96.6,51 96.6,12.3 106.5,12.3 106.5,33.1 115.9,23.6 127.6,23.6 116.3,34.3 128,51 116.8,51 
		108.9,39.9 106.5,42.3 	"/>
	<path class="st0" d="M187.4,51h-20.2V12.3h18.9c10,0,14.4,4.2,14.4,10.7c0,4.3-2.8,7.3-6.9,7.9c4.5,0.9,8.1,3.9,8.1,9.5
		C201.7,47.1,196.4,51,187.4,51 M177.4,27.6h7.4c3.6,0,5-1.6,5-3.4c0-2-1.4-3.6-5-3.6h-7.4V27.6z M177.4,35.5v7.2h8.4
		c3.6,0,5.2-1.5,5.2-3.6s-1.6-3.6-5.3-3.6H177.4z"/>
	<path class="st0" d="M203.7,35.6V12.3h10.4v21.6c0,5.9,1.8,9,7.2,9c5.4,0,7.2-3.1,7.2-9V12.3h10.5v23.4c0,11.3-7.7,16.1-17.6,16.1
		S203.7,47,203.7,35.6"/>
	<polygon class="st1" points="155.2,0 155.2,10.9 124.5,10.9 124.5,54.4 155.2,54.4 155.2,65.4 174.8,32.6 	"/>
	<path class="st2" d="M158.5,42.3v7.8h-27.1v-6.8l9.7-7.6c5.3-4.3,7.1-6.1,7.1-9.4c0-2.2-1-3.8-3.8-3.8c-2.9,0-4,2.2-4,5.1
		c0,1.3,0.2,2.2,0.4,2.9l-9.2-0.3c-0.2-1.1-0.4-2.2-0.4-3.3c0-7.5,5.6-12.4,13.6-12.4c8.5,0,13.3,4.8,13.3,11.3
		c0,6.1-3.1,8.9-8.7,13.2l-4.3,3.3H158.5z"/>
</g>
</svg>
